<mxfile host="app.diagrams.net" agent="Mozilla/5.0 (Windows NT 10.0; Win64; x64) AppleWebKit/537.36 (KHTML, like Gecko) Chrome/132.0.0.0 Safari/537.36" version="26.0.10" pages="3">
  <diagram name="Recipe Suggestions" id="qvq8mcwyWJZeCCNvrL-o">
    <mxGraphModel dx="1574" dy="1347" grid="1" gridSize="10" guides="1" tooltips="1" connect="1" arrows="1" fold="1" page="1" pageScale="1" pageWidth="583" pageHeight="827" math="0" shadow="0">
      <root>
        <mxCell id="0" />
        <mxCell id="1" parent="0" />
        <mxCell id="sZhmpHKjOVJQFTUwGN-R-1" value="" style="shape=table;startSize=0;container=1;collapsible=0;childLayout=tableLayout;" vertex="1" parent="1">
          <mxGeometry x="-39" y="-394" width="709" height="824.0000000000001" as="geometry" />
        </mxCell>
        <mxCell id="sZhmpHKjOVJQFTUwGN-R-2" value="" style="shape=tableRow;horizontal=0;startSize=0;swimlaneHead=0;swimlaneBody=0;strokeColor=inherit;top=0;left=0;bottom=0;right=0;collapsible=0;dropTarget=0;fillColor=none;points=[[0,0.5],[1,0.5]];portConstraint=eastwest;" vertex="1" parent="sZhmpHKjOVJQFTUwGN-R-1">
          <mxGeometry width="709" height="41" as="geometry" />
        </mxCell>
        <mxCell id="sZhmpHKjOVJQFTUwGN-R-3" value="User" style="shape=partialRectangle;html=1;whiteSpace=wrap;connectable=0;strokeColor=inherit;overflow=hidden;fillColor=none;top=0;left=0;bottom=0;right=0;pointerEvents=1;" vertex="1" parent="sZhmpHKjOVJQFTUwGN-R-2">
          <mxGeometry width="296" height="41" as="geometry">
            <mxRectangle width="296" height="41" as="alternateBounds" />
          </mxGeometry>
        </mxCell>
        <mxCell id="sZhmpHKjOVJQFTUwGN-R-4" value="System" style="shape=partialRectangle;html=1;whiteSpace=wrap;connectable=0;strokeColor=inherit;overflow=hidden;fillColor=none;top=0;left=0;bottom=0;right=0;pointerEvents=1;" vertex="1" parent="sZhmpHKjOVJQFTUwGN-R-2">
          <mxGeometry x="296" width="413" height="41" as="geometry">
            <mxRectangle width="413" height="41" as="alternateBounds" />
          </mxGeometry>
        </mxCell>
        <mxCell id="sZhmpHKjOVJQFTUwGN-R-5" value="" style="shape=tableRow;horizontal=0;startSize=0;swimlaneHead=0;swimlaneBody=0;strokeColor=inherit;top=0;left=0;bottom=0;right=0;collapsible=0;dropTarget=0;fillColor=none;points=[[0,0.5],[1,0.5]];portConstraint=eastwest;" vertex="1" parent="sZhmpHKjOVJQFTUwGN-R-1">
          <mxGeometry y="41" width="709" height="783" as="geometry" />
        </mxCell>
        <mxCell id="sZhmpHKjOVJQFTUwGN-R-6" value="" style="shape=partialRectangle;html=1;whiteSpace=wrap;connectable=0;strokeColor=inherit;overflow=hidden;fillColor=none;top=0;left=0;bottom=0;right=0;pointerEvents=1;" vertex="1" parent="sZhmpHKjOVJQFTUwGN-R-5">
          <mxGeometry width="296" height="783" as="geometry">
            <mxRectangle width="296" height="783" as="alternateBounds" />
          </mxGeometry>
        </mxCell>
        <mxCell id="sZhmpHKjOVJQFTUwGN-R-7" value="" style="shape=partialRectangle;html=1;whiteSpace=wrap;connectable=0;strokeColor=inherit;overflow=hidden;fillColor=none;top=0;left=0;bottom=0;right=0;pointerEvents=1;" vertex="1" parent="sZhmpHKjOVJQFTUwGN-R-5">
          <mxGeometry x="296" width="413" height="783" as="geometry">
            <mxRectangle width="413" height="783" as="alternateBounds" />
          </mxGeometry>
        </mxCell>
        <mxCell id="sZhmpHKjOVJQFTUwGN-R-8" value="" style="rounded=1;whiteSpace=wrap;html=1;fillColor=#ffffc0;strokeColor=#ff0000;fontColor=#000000;arcSize=40;" vertex="1" parent="sZhmpHKjOVJQFTUwGN-R-5">
          <mxGeometry x="709" width="NaN" height="783" as="geometry">
            <mxRectangle width="NaN" height="783" as="alternateBounds" />
          </mxGeometry>
        </mxCell>
        <mxCell id="sZhmpHKjOVJQFTUwGN-R-11" value=" Ingredient Selection" style="rounded=1;whiteSpace=wrap;html=1;arcSize=40;fontColor=#000000;fillColor=#ffffc0;strokeColor=#ff0000;" vertex="1" parent="1">
          <mxGeometry x="45" y="-257" width="120" height="40" as="geometry" />
        </mxCell>
        <mxCell id="sZhmpHKjOVJQFTUwGN-R-12" value="" style="html=1;verticalAlign=bottom;endArrow=open;endSize=8;strokeColor=#000000;rounded=0;fontSize=12;entryX=0.5;entryY=0;entryDx=0;entryDy=0;edgeStyle=orthogonalEdgeStyle;" edge="1" parent="1" source="sZhmpHKjOVJQFTUwGN-R-11" target="sZhmpHKjOVJQFTUwGN-R-22">
          <mxGeometry relative="1" as="geometry">
            <mxPoint x="120" y="-123" as="targetPoint" />
            <Array as="points" />
          </mxGeometry>
        </mxCell>
        <mxCell id="sZhmpHKjOVJQFTUwGN-R-14" value="" style="edgeStyle=none;curved=1;rounded=0;orthogonalLoop=1;jettySize=auto;html=1;fontSize=12;startSize=8;endSize=8;" edge="1" parent="1" target="sZhmpHKjOVJQFTUwGN-R-8">
          <mxGeometry relative="1" as="geometry">
            <mxPoint x="NaN" y="714.0000000000005" as="sourcePoint" />
          </mxGeometry>
        </mxCell>
        <mxCell id="sZhmpHKjOVJQFTUwGN-R-21" value="" style="ellipse;html=1;shape=endState;fillColor=#000000;strokeColor=#ff0000;" vertex="1" parent="1">
          <mxGeometry x="65" y="370" width="30" height="30" as="geometry" />
        </mxCell>
        <mxCell id="sZhmpHKjOVJQFTUwGN-R-27" style="edgeStyle=orthogonalEdgeStyle;rounded=0;orthogonalLoop=1;jettySize=auto;html=1;exitX=0.5;exitY=1;exitDx=0;exitDy=0;endArrow=open;endFill=0;" edge="1" parent="1" source="sZhmpHKjOVJQFTUwGN-R-22" target="sZhmpHKjOVJQFTUwGN-R-26">
          <mxGeometry relative="1" as="geometry" />
        </mxCell>
        <mxCell id="sZhmpHKjOVJQFTUwGN-R-22" value="Retrieve Inventory Information" style="rounded=1;whiteSpace=wrap;html=1;arcSize=40;fontColor=#000000;fillColor=#ffffc0;strokeColor=#ff0000;" vertex="1" parent="1">
          <mxGeometry x="340" y="-220" width="120" height="40" as="geometry" />
        </mxCell>
        <mxCell id="sZhmpHKjOVJQFTUwGN-R-40" style="edgeStyle=orthogonalEdgeStyle;rounded=0;orthogonalLoop=1;jettySize=auto;html=1;exitX=0.5;exitY=1;exitDx=0;exitDy=0;endArrow=open;endFill=0;" edge="1" parent="1" source="sZhmpHKjOVJQFTUwGN-R-26" target="sZhmpHKjOVJQFTUwGN-R-37">
          <mxGeometry relative="1" as="geometry" />
        </mxCell>
        <mxCell id="sZhmpHKjOVJQFTUwGN-R-26" value="Check Expiring Ingredients" style="rounded=1;whiteSpace=wrap;html=1;arcSize=40;fontColor=#000000;fillColor=#ffffc0;strokeColor=#ff0000;" vertex="1" parent="1">
          <mxGeometry x="340" y="-160" width="120" height="40" as="geometry" />
        </mxCell>
        <mxCell id="sZhmpHKjOVJQFTUwGN-R-46" style="edgeStyle=orthogonalEdgeStyle;rounded=0;orthogonalLoop=1;jettySize=auto;html=1;exitX=0.5;exitY=1;exitDx=0;exitDy=0;entryX=0.5;entryY=0;entryDx=0;entryDy=0;endArrow=open;endFill=0;" edge="1" parent="1" source="sZhmpHKjOVJQFTUwGN-R-28" target="sZhmpHKjOVJQFTUwGN-R-43">
          <mxGeometry relative="1" as="geometry" />
        </mxCell>
        <mxCell id="sZhmpHKjOVJQFTUwGN-R-28" value="&lt;div&gt;Fetch Recipes Using Expiring Ingredients&lt;/div&gt;" style="rounded=1;whiteSpace=wrap;html=1;arcSize=40;fontColor=#000000;fillColor=#ffffc0;strokeColor=#ff0000;align=center;" vertex="1" parent="1">
          <mxGeometry x="340" y="-10" width="120" height="40" as="geometry" />
        </mxCell>
        <mxCell id="sZhmpHKjOVJQFTUwGN-R-35" style="edgeStyle=orthogonalEdgeStyle;rounded=0;orthogonalLoop=1;jettySize=auto;html=1;exitX=0;exitY=0.5;exitDx=0;exitDy=0;endArrow=open;endFill=0;" edge="1" parent="1" source="sZhmpHKjOVJQFTUwGN-R-48" target="sZhmpHKjOVJQFTUwGN-R-34">
          <mxGeometry relative="1" as="geometry" />
        </mxCell>
        <mxCell id="sZhmpHKjOVJQFTUwGN-R-54" value="Text" style="edgeLabel;html=1;align=center;verticalAlign=middle;resizable=0;points=[];" vertex="1" connectable="0" parent="sZhmpHKjOVJQFTUwGN-R-35">
          <mxGeometry x="-0.019" y="-1" relative="1" as="geometry">
            <mxPoint as="offset" />
          </mxGeometry>
        </mxCell>
        <mxCell id="sZhmpHKjOVJQFTUwGN-R-55" value="Recipe information and calories" style="edgeLabel;html=1;align=center;verticalAlign=middle;resizable=0;points=[];" vertex="1" connectable="0" parent="sZhmpHKjOVJQFTUwGN-R-35">
          <mxGeometry x="-0.0243" y="-1" relative="1" as="geometry">
            <mxPoint as="offset" />
          </mxGeometry>
        </mxCell>
        <mxCell id="sZhmpHKjOVJQFTUwGN-R-50" style="edgeStyle=orthogonalEdgeStyle;rounded=0;orthogonalLoop=1;jettySize=auto;html=1;entryX=0.506;entryY=-0.008;entryDx=0;entryDy=0;entryPerimeter=0;endArrow=open;endFill=0;" edge="1" parent="1" source="sZhmpHKjOVJQFTUwGN-R-32" target="sZhmpHKjOVJQFTUwGN-R-48">
          <mxGeometry relative="1" as="geometry" />
        </mxCell>
        <mxCell id="sZhmpHKjOVJQFTUwGN-R-32" value="&lt;div&gt;Filter Recipes Based on Preferences&lt;/div&gt;" style="rounded=1;whiteSpace=wrap;html=1;arcSize=40;fontColor=#000000;fillColor=#ffffc0;strokeColor=#ff0000;align=center;" vertex="1" parent="1">
          <mxGeometry x="340" y="160" width="120" height="40" as="geometry" />
        </mxCell>
        <mxCell id="sZhmpHKjOVJQFTUwGN-R-58" style="edgeStyle=orthogonalEdgeStyle;rounded=0;orthogonalLoop=1;jettySize=auto;html=1;endArrow=open;endFill=0;" edge="1" parent="1" source="sZhmpHKjOVJQFTUwGN-R-34" target="sZhmpHKjOVJQFTUwGN-R-57">
          <mxGeometry relative="1" as="geometry" />
        </mxCell>
        <mxCell id="sZhmpHKjOVJQFTUwGN-R-34" value="&lt;div&gt;Display Recipe Suggestions&lt;/div&gt;" style="rounded=1;whiteSpace=wrap;html=1;arcSize=40;fontColor=#000000;fillColor=#ffffc0;strokeColor=#ff0000;align=center;" vertex="1" parent="1">
          <mxGeometry x="20" y="230" width="120" height="40" as="geometry" />
        </mxCell>
        <mxCell id="sZhmpHKjOVJQFTUwGN-R-47" style="edgeStyle=orthogonalEdgeStyle;rounded=0;orthogonalLoop=1;jettySize=auto;html=1;exitX=0.5;exitY=1;exitDx=0;exitDy=0;entryX=0.5;entryY=0;entryDx=0;entryDy=0;endArrow=open;endFill=0;" edge="1" parent="1" source="sZhmpHKjOVJQFTUwGN-R-36" target="sZhmpHKjOVJQFTUwGN-R-43">
          <mxGeometry relative="1" as="geometry">
            <Array as="points">
              <mxPoint x="590" y="50" />
              <mxPoint x="400" y="50" />
            </Array>
          </mxGeometry>
        </mxCell>
        <mxCell id="sZhmpHKjOVJQFTUwGN-R-36" value="Fetch Recipes Without Expiring Ingredients" style="rounded=1;whiteSpace=wrap;html=1;arcSize=40;fontColor=#000000;fillColor=#ffffc0;strokeColor=#ff0000;" vertex="1" parent="1">
          <mxGeometry x="530" y="-100" width="120" height="40" as="geometry" />
        </mxCell>
        <mxCell id="sZhmpHKjOVJQFTUwGN-R-37" value="expiring ingredients" style="rhombus;whiteSpace=wrap;html=1;fontColor=#000000;fillColor=#ffffc0;strokeColor=#ff0000;" vertex="1" parent="1">
          <mxGeometry x="360" y="-100" width="80" height="50" as="geometry" />
        </mxCell>
        <mxCell id="sZhmpHKjOVJQFTUwGN-R-38" value="no" style="edgeStyle=orthogonalEdgeStyle;html=1;align=left;verticalAlign=bottom;endArrow=open;endSize=8;strokeColor=#ff0000;rounded=0;entryX=0;entryY=0.5;entryDx=0;entryDy=0;" edge="1" source="sZhmpHKjOVJQFTUwGN-R-37" parent="1" target="sZhmpHKjOVJQFTUwGN-R-36">
          <mxGeometry x="-1" relative="1" as="geometry">
            <mxPoint x="520" y="-90" as="targetPoint" />
            <Array as="points">
              <mxPoint x="520" y="-80" />
            </Array>
          </mxGeometry>
        </mxCell>
        <mxCell id="sZhmpHKjOVJQFTUwGN-R-39" value="yes" style="edgeStyle=orthogonalEdgeStyle;html=1;align=left;verticalAlign=top;endArrow=open;endSize=8;strokeColor=#ff0000;rounded=0;" edge="1" source="sZhmpHKjOVJQFTUwGN-R-37" parent="1">
          <mxGeometry x="-1" relative="1" as="geometry">
            <mxPoint x="400" y="-10" as="targetPoint" />
          </mxGeometry>
        </mxCell>
        <mxCell id="sZhmpHKjOVJQFTUwGN-R-43" value="recipes available" style="rhombus;whiteSpace=wrap;html=1;fontColor=#000000;fillColor=#ffffc0;strokeColor=#ff0000;" vertex="1" parent="1">
          <mxGeometry x="360" y="60" width="80" height="40" as="geometry" />
        </mxCell>
        <mxCell id="sZhmpHKjOVJQFTUwGN-R-44" value="no" style="edgeStyle=orthogonalEdgeStyle;html=1;align=left;verticalAlign=bottom;endArrow=open;endSize=8;strokeColor=#ff0000;rounded=0;" edge="1" source="sZhmpHKjOVJQFTUwGN-R-43" parent="1">
          <mxGeometry x="-1" relative="1" as="geometry">
            <mxPoint x="540" y="80" as="targetPoint" />
          </mxGeometry>
        </mxCell>
        <mxCell id="sZhmpHKjOVJQFTUwGN-R-45" value="yes" style="edgeStyle=orthogonalEdgeStyle;html=1;align=left;verticalAlign=top;endArrow=open;endSize=8;strokeColor=#ff0000;rounded=0;" edge="1" source="sZhmpHKjOVJQFTUwGN-R-43" parent="1">
          <mxGeometry x="-1" relative="1" as="geometry">
            <mxPoint x="400" y="160" as="targetPoint" />
          </mxGeometry>
        </mxCell>
        <mxCell id="sZhmpHKjOVJQFTUwGN-R-48" value="calculates calorie" style="rounded=1;whiteSpace=wrap;html=1;arcSize=40;fontColor=#000000;fillColor=#ffffc0;strokeColor=#ff0000;" vertex="1" parent="1">
          <mxGeometry x="339" y="230" width="120" height="40" as="geometry" />
        </mxCell>
        <mxCell id="sZhmpHKjOVJQFTUwGN-R-62" style="edgeStyle=orthogonalEdgeStyle;rounded=0;orthogonalLoop=1;jettySize=auto;html=1;exitX=0.5;exitY=1;exitDx=0;exitDy=0;entryX=1;entryY=0.5;entryDx=0;entryDy=0;endArrow=open;endFill=0;" edge="1" parent="1" source="sZhmpHKjOVJQFTUwGN-R-56" target="sZhmpHKjOVJQFTUwGN-R-21">
          <mxGeometry relative="1" as="geometry" />
        </mxCell>
        <mxCell id="sZhmpHKjOVJQFTUwGN-R-56" value="&lt;div&gt;Show message &quot;No recipes found&quot;&lt;/div&gt;" style="rounded=1;whiteSpace=wrap;html=1;arcSize=40;fontColor=#000000;fillColor=#ffffc0;strokeColor=#ff0000;align=center;" vertex="1" parent="1">
          <mxGeometry x="540" y="60" width="120" height="40" as="geometry" />
        </mxCell>
        <mxCell id="sZhmpHKjOVJQFTUwGN-R-61" style="edgeStyle=orthogonalEdgeStyle;rounded=0;orthogonalLoop=1;jettySize=auto;html=1;entryX=0.5;entryY=0;entryDx=0;entryDy=0;endArrow=open;endFill=0;" edge="1" parent="1" source="sZhmpHKjOVJQFTUwGN-R-57" target="sZhmpHKjOVJQFTUwGN-R-21">
          <mxGeometry relative="1" as="geometry" />
        </mxCell>
        <mxCell id="sZhmpHKjOVJQFTUwGN-R-57" value="track daily calorie intake" style="rounded=1;whiteSpace=wrap;html=1;arcSize=40;fontColor=#000000;fillColor=#ffffc0;strokeColor=#ff0000;" vertex="1" parent="1">
          <mxGeometry x="20" y="300" width="120" height="40" as="geometry" />
        </mxCell>
        <mxCell id="O7K2ohhSBRoXmGbVrQf_-1" value="" style="ellipse;html=1;shape=startState;fillColor=#000000;strokeColor=#ff0000;" vertex="1" parent="1">
          <mxGeometry x="90" y="-330" width="30" height="30" as="geometry" />
        </mxCell>
        <mxCell id="O7K2ohhSBRoXmGbVrQf_-2" value="" style="edgeStyle=orthogonalEdgeStyle;html=1;verticalAlign=bottom;endArrow=open;endSize=8;rounded=0;" edge="1" source="O7K2ohhSBRoXmGbVrQf_-1" parent="1">
          <mxGeometry relative="1" as="geometry">
            <mxPoint x="105" y="-257" as="targetPoint" />
          </mxGeometry>
        </mxCell>
      </root>
    </mxGraphModel>
  </diagram>
  <diagram name="Add Comments" id="GBAWyYjfzElZvG9IA0z9">
    <mxGraphModel dx="1274" dy="859" grid="0" gridSize="10" guides="1" tooltips="1" connect="1" arrows="1" fold="1" page="0" pageScale="1" pageWidth="850" pageHeight="1100" math="0" shadow="0">
      <root>
        <mxCell id="0" />
        <mxCell id="1" parent="0" />
        <mxCell id="It617AAErZ2_1E9ZAjCa-1" value="" style="shape=table;startSize=0;container=1;collapsible=0;childLayout=tableLayout;fillColor=#F6F8FA;strokeColor=#9AC7BF;" parent="1" vertex="1">
          <mxGeometry x="-39" y="-367" width="710.1528980553669" height="672.3473053715657" as="geometry" />
        </mxCell>
        <mxCell id="It617AAErZ2_1E9ZAjCa-2" value="" style="shape=tableRow;horizontal=0;startSize=0;swimlaneHead=0;swimlaneBody=0;strokeColor=inherit;top=0;left=0;bottom=0;right=0;collapsible=0;dropTarget=0;fillColor=none;points=[[0,0.5],[1,0.5]];portConstraint=eastwest;" parent="It617AAErZ2_1E9ZAjCa-1" vertex="1">
          <mxGeometry width="710.1528980553669" height="28" as="geometry" />
        </mxCell>
        <mxCell id="It617AAErZ2_1E9ZAjCa-3" value="User" style="shape=partialRectangle;html=1;whiteSpace=wrap;connectable=0;strokeColor=inherit;overflow=hidden;fillColor=none;top=0;left=0;bottom=0;right=0;pointerEvents=1;" parent="It617AAErZ2_1E9ZAjCa-2" vertex="1">
          <mxGeometry width="289" height="28" as="geometry">
            <mxRectangle width="289" height="28" as="alternateBounds" />
          </mxGeometry>
        </mxCell>
        <mxCell id="It617AAErZ2_1E9ZAjCa-4" value="System" style="shape=partialRectangle;html=1;whiteSpace=wrap;connectable=0;strokeColor=inherit;overflow=hidden;fillColor=none;top=0;left=0;bottom=0;right=0;pointerEvents=1;" parent="It617AAErZ2_1E9ZAjCa-2" vertex="1">
          <mxGeometry x="289" width="421" height="28" as="geometry">
            <mxRectangle width="421" height="28" as="alternateBounds" />
          </mxGeometry>
        </mxCell>
        <mxCell id="It617AAErZ2_1E9ZAjCa-5" value="" style="shape=tableRow;horizontal=0;startSize=0;swimlaneHead=0;swimlaneBody=0;strokeColor=inherit;top=0;left=0;bottom=0;right=0;collapsible=0;dropTarget=0;fillColor=none;points=[[0,0.5],[1,0.5]];portConstraint=eastwest;" parent="It617AAErZ2_1E9ZAjCa-1" vertex="1">
          <mxGeometry y="28" width="710.1528980553669" height="644" as="geometry" />
        </mxCell>
        <mxCell id="It617AAErZ2_1E9ZAjCa-6" value="" style="shape=partialRectangle;html=1;whiteSpace=wrap;connectable=0;strokeColor=inherit;overflow=hidden;fillColor=none;top=0;left=0;bottom=0;right=0;pointerEvents=1;" parent="It617AAErZ2_1E9ZAjCa-5" vertex="1">
          <mxGeometry width="289" height="644" as="geometry">
            <mxRectangle width="289" height="644" as="alternateBounds" />
          </mxGeometry>
        </mxCell>
        <mxCell id="It617AAErZ2_1E9ZAjCa-7" value="" style="shape=partialRectangle;html=1;whiteSpace=wrap;connectable=0;strokeColor=inherit;overflow=hidden;fillColor=none;top=0;left=0;bottom=0;right=0;pointerEvents=1;" parent="It617AAErZ2_1E9ZAjCa-5" vertex="1">
          <mxGeometry x="289" width="421" height="644" as="geometry">
            <mxRectangle width="421" height="644" as="alternateBounds" />
          </mxGeometry>
        </mxCell>
        <mxCell id="It617AAErZ2_1E9ZAjCa-8" value="" style="rounded=1;whiteSpace=wrap;html=1;fillColor=#ffffc0;strokeColor=#ff0000;fontColor=#000000;arcSize=40;" parent="It617AAErZ2_1E9ZAjCa-5" vertex="1">
          <mxGeometry x="710" width="NaN" height="644" as="geometry">
            <mxRectangle width="NaN" height="644" as="alternateBounds" />
          </mxGeometry>
        </mxCell>
        <mxCell id="It617AAErZ2_1E9ZAjCa-9" value="" style="ellipse;html=1;shape=startState;fillColor=#2E625B;strokeColor=#F6F8FA;" parent="1" vertex="1">
          <mxGeometry x="90" y="-313" width="30" height="30" as="geometry" />
        </mxCell>
        <mxCell id="It617AAErZ2_1E9ZAjCa-10" value="" style="edgeStyle=orthogonalEdgeStyle;html=1;verticalAlign=bottom;endArrow=open;endSize=8;strokeColor=#000000;rounded=0;fontSize=12;curved=1;entryX=0.5;entryY=0;entryDx=0;entryDy=0;" parent="1" source="It617AAErZ2_1E9ZAjCa-9" target="It617AAErZ2_1E9ZAjCa-11" edge="1">
          <mxGeometry relative="1" as="geometry">
            <mxPoint x="120" y="-221" as="targetPoint" />
          </mxGeometry>
        </mxCell>
        <mxCell id="i251mew_WSR6ro7rb4tY-2" style="edgeStyle=orthogonalEdgeStyle;rounded=0;orthogonalLoop=1;jettySize=auto;html=1;exitX=1;exitY=0.5;exitDx=0;exitDy=0;endArrow=open;endFill=0;" edge="1" parent="1" source="It617AAErZ2_1E9ZAjCa-11" target="i251mew_WSR6ro7rb4tY-1">
          <mxGeometry relative="1" as="geometry" />
        </mxCell>
        <mxCell id="It617AAErZ2_1E9ZAjCa-11" value="Select Recipe" style="rounded=1;whiteSpace=wrap;html=1;arcSize=40;fontColor=#000000;fillColor=#FFFFFF;strokeColor=#2E625B;" parent="1" vertex="1">
          <mxGeometry x="45" y="-257" width="120" height="40" as="geometry" />
        </mxCell>
        <mxCell id="0FFfqZDTvfy1JYSrKzYc-5" style="edgeStyle=orthogonalEdgeStyle;rounded=0;orthogonalLoop=1;jettySize=auto;html=1;exitX=1;exitY=0.5;exitDx=0;exitDy=0;entryX=0;entryY=0.5;entryDx=0;entryDy=0;endArrow=open;endFill=0;" edge="1" parent="1" source="It617AAErZ2_1E9ZAjCa-15" target="0FFfqZDTvfy1JYSrKzYc-16">
          <mxGeometry relative="1" as="geometry">
            <mxPoint x="343" y="-89" as="targetPoint" />
          </mxGeometry>
        </mxCell>
        <mxCell id="0FFfqZDTvfy1JYSrKzYc-6" value="comment" style="edgeLabel;html=1;align=center;verticalAlign=middle;resizable=0;points=[];" vertex="1" connectable="0" parent="0FFfqZDTvfy1JYSrKzYc-5">
          <mxGeometry x="-0.0611" y="1" relative="1" as="geometry">
            <mxPoint as="offset" />
          </mxGeometry>
        </mxCell>
        <mxCell id="It617AAErZ2_1E9ZAjCa-15" value="Enter comment" style="rounded=1;whiteSpace=wrap;html=1;arcSize=40;fontColor=#000000;fillColor=#FFFFFF;strokeColor=#2E625B;" parent="1" vertex="1">
          <mxGeometry x="45" y="-109" width="120" height="40" as="geometry" />
        </mxCell>
        <mxCell id="CigbHygZCIs2mhu41c1T-2" style="edgeStyle=orthogonalEdgeStyle;rounded=0;orthogonalLoop=1;jettySize=auto;html=1;entryX=0.5;entryY=0;entryDx=0;entryDy=0;endArrow=open;endFill=0;" edge="1" parent="1" source="It617AAErZ2_1E9ZAjCa-16" target="kEgITRK2Zp_CGvGWQ56D-2">
          <mxGeometry relative="1" as="geometry" />
        </mxCell>
        <mxCell id="It617AAErZ2_1E9ZAjCa-16" value="Store Comment in Database" style="rounded=1;whiteSpace=wrap;html=1;arcSize=40;fontColor=#000000;fillColor=#FFFFFF;strokeColor=#2E625B;" parent="1" vertex="1">
          <mxGeometry x="350" y="-22" width="120" height="40" as="geometry" />
        </mxCell>
        <mxCell id="kEgITRK2Zp_CGvGWQ56D-10" style="edgeStyle=orthogonalEdgeStyle;rounded=0;orthogonalLoop=1;jettySize=auto;html=1;entryX=0.5;entryY=0;entryDx=0;entryDy=0;endArrow=open;endFill=0;" edge="1" parent="1" source="It617AAErZ2_1E9ZAjCa-23" target="kEgITRK2Zp_CGvGWQ56D-9">
          <mxGeometry relative="1" as="geometry" />
        </mxCell>
        <mxCell id="It617AAErZ2_1E9ZAjCa-23" value="Display comment" style="rounded=1;whiteSpace=wrap;html=1;arcSize=40;fontColor=#000000;fillColor=#FFFFFF;strokeColor=#2E625B;" parent="1" vertex="1">
          <mxGeometry x="45" y="196" width="120" height="40" as="geometry" />
        </mxCell>
        <mxCell id="0FFfqZDTvfy1JYSrKzYc-2" style="edgeStyle=orthogonalEdgeStyle;rounded=0;orthogonalLoop=1;jettySize=auto;html=1;entryX=1;entryY=0.5;entryDx=0;entryDy=0;exitX=0.5;exitY=1;exitDx=0;exitDy=0;endArrow=open;endFill=0;" edge="1" parent="1" source="i251mew_WSR6ro7rb4tY-1" target="0FFfqZDTvfy1JYSrKzYc-1">
          <mxGeometry relative="1" as="geometry" />
        </mxCell>
        <mxCell id="i251mew_WSR6ro7rb4tY-1" value="Retrieve Recipe Details" style="rounded=1;whiteSpace=wrap;html=1;arcSize=40;fontColor=#000000;fillColor=#FFFFFF;strokeColor=#2E625B;" vertex="1" parent="1">
          <mxGeometry x="343" y="-257" width="120" height="40" as="geometry" />
        </mxCell>
        <mxCell id="0FFfqZDTvfy1JYSrKzYc-4" style="edgeStyle=orthogonalEdgeStyle;rounded=0;orthogonalLoop=1;jettySize=auto;html=1;entryX=0.5;entryY=0;entryDx=0;entryDy=0;endArrow=open;endFill=0;" edge="1" parent="1" source="0FFfqZDTvfy1JYSrKzYc-1" target="It617AAErZ2_1E9ZAjCa-15">
          <mxGeometry relative="1" as="geometry" />
        </mxCell>
        <mxCell id="0FFfqZDTvfy1JYSrKzYc-1" value="Show Recipe Details" style="rounded=1;whiteSpace=wrap;html=1;arcSize=40;fontColor=#000000;fillColor=#FFFFFF;strokeColor=#2E625B;" vertex="1" parent="1">
          <mxGeometry x="45" y="-183" width="120" height="40" as="geometry" />
        </mxCell>
        <mxCell id="0FFfqZDTvfy1JYSrKzYc-8" value="Update UI" style="rounded=1;whiteSpace=wrap;html=1;arcSize=40;fontColor=#000000;fillColor=#FFFFFF;strokeColor=#2E625B;" vertex="1" parent="1">
          <mxGeometry x="350" y="122" width="120" height="40" as="geometry" />
        </mxCell>
        <mxCell id="0FFfqZDTvfy1JYSrKzYc-15" style="edgeStyle=orthogonalEdgeStyle;rounded=0;orthogonalLoop=1;jettySize=auto;html=1;endArrow=open;endFill=0;" edge="1" parent="1" source="0FFfqZDTvfy1JYSrKzYc-10" target="It617AAErZ2_1E9ZAjCa-23">
          <mxGeometry relative="1" as="geometry" />
        </mxCell>
        <mxCell id="kEgITRK2Zp_CGvGWQ56D-8" value="comment &amp;amp;&amp;amp;&lt;br&gt;success message" style="edgeLabel;html=1;align=center;verticalAlign=middle;resizable=0;points=[];" vertex="1" connectable="0" parent="0FFfqZDTvfy1JYSrKzYc-15">
          <mxGeometry x="-0.0534" y="-1" relative="1" as="geometry">
            <mxPoint as="offset" />
          </mxGeometry>
        </mxCell>
        <mxCell id="0FFfqZDTvfy1JYSrKzYc-10" value="Show Success Message" style="rounded=1;whiteSpace=wrap;html=1;arcSize=40;fontColor=#000000;fillColor=#FFFFFF;strokeColor=#2E625B;" vertex="1" parent="1">
          <mxGeometry x="353" y="196" width="120" height="40" as="geometry" />
        </mxCell>
        <mxCell id="0FFfqZDTvfy1JYSrKzYc-13" style="edgeStyle=orthogonalEdgeStyle;rounded=0;orthogonalLoop=1;jettySize=auto;html=1;entryX=0.474;entryY=0.026;entryDx=0;entryDy=0;entryPerimeter=0;endArrow=open;endFill=0;" edge="1" parent="1" source="0FFfqZDTvfy1JYSrKzYc-8" target="0FFfqZDTvfy1JYSrKzYc-10">
          <mxGeometry relative="1" as="geometry" />
        </mxCell>
        <mxCell id="0FFfqZDTvfy1JYSrKzYc-16" value="Validate Comment" style="rhombus;whiteSpace=wrap;html=1;fillColor=#dae8fc;strokeColor=#6c8ebf;" vertex="1" parent="1">
          <mxGeometry x="370" y="-109" width="80" height="40" as="geometry" />
        </mxCell>
        <mxCell id="0FFfqZDTvfy1JYSrKzYc-17" value="no" style="edgeStyle=orthogonalEdgeStyle;html=1;align=left;verticalAlign=bottom;endArrow=open;endSize=8;rounded=0;" edge="1" source="0FFfqZDTvfy1JYSrKzYc-16" parent="1">
          <mxGeometry x="-1" relative="1" as="geometry">
            <mxPoint x="508" y="-89" as="targetPoint" />
          </mxGeometry>
        </mxCell>
        <mxCell id="0FFfqZDTvfy1JYSrKzYc-18" value="yes" style="edgeStyle=orthogonalEdgeStyle;html=1;align=left;verticalAlign=top;endArrow=open;endSize=8;rounded=0;entryX=0.5;entryY=0;entryDx=0;entryDy=0;" edge="1" source="0FFfqZDTvfy1JYSrKzYc-16" parent="1" target="It617AAErZ2_1E9ZAjCa-16">
          <mxGeometry x="-1" relative="1" as="geometry">
            <mxPoint x="415" y="-12" as="targetPoint" />
          </mxGeometry>
        </mxCell>
        <mxCell id="kEgITRK2Zp_CGvGWQ56D-12" style="edgeStyle=orthogonalEdgeStyle;rounded=0;orthogonalLoop=1;jettySize=auto;html=1;entryX=1;entryY=0.5;entryDx=0;entryDy=0;endArrow=open;endFill=0;" edge="1" parent="1" source="0FFfqZDTvfy1JYSrKzYc-32" target="kEgITRK2Zp_CGvGWQ56D-9">
          <mxGeometry relative="1" as="geometry">
            <Array as="points">
              <mxPoint x="644" y="-87" />
              <mxPoint x="644" y="274" />
            </Array>
          </mxGeometry>
        </mxCell>
        <mxCell id="0FFfqZDTvfy1JYSrKzYc-32" value="&lt;span style=&quot;background-color: rgb(251, 251, 251);&quot;&gt;Show message&amp;nbsp;&lt;br&gt;&quot; Not validated&quot;&lt;/span&gt;" style="rounded=1;whiteSpace=wrap;html=1;arcSize=40;fontColor=#000000;fillColor=#FFFFFF;strokeColor=#2E625B;" vertex="1" parent="1">
          <mxGeometry x="505" y="-107" width="120" height="40" as="geometry" />
        </mxCell>
        <mxCell id="kEgITRK2Zp_CGvGWQ56D-2" value="No problem in saving" style="rhombus;whiteSpace=wrap;html=1;fillColor=#dae8fc;strokeColor=#6c8ebf;" vertex="1" parent="1">
          <mxGeometry x="370" y="32" width="80" height="55" as="geometry" />
        </mxCell>
        <mxCell id="kEgITRK2Zp_CGvGWQ56D-3" value="no" style="edgeStyle=orthogonalEdgeStyle;html=1;align=left;verticalAlign=bottom;endArrow=open;endSize=8;rounded=0;" edge="1" source="kEgITRK2Zp_CGvGWQ56D-2" parent="1" target="kEgITRK2Zp_CGvGWQ56D-6">
          <mxGeometry x="-1" relative="1" as="geometry">
            <mxPoint x="548" y="53" as="targetPoint" />
          </mxGeometry>
        </mxCell>
        <mxCell id="kEgITRK2Zp_CGvGWQ56D-4" value="yes" style="edgeStyle=orthogonalEdgeStyle;html=1;align=left;verticalAlign=top;endArrow=open;endSize=8;rounded=0;" edge="1" source="kEgITRK2Zp_CGvGWQ56D-2" parent="1">
          <mxGeometry x="-1" relative="1" as="geometry">
            <mxPoint x="410" y="126" as="targetPoint" />
          </mxGeometry>
        </mxCell>
        <mxCell id="kEgITRK2Zp_CGvGWQ56D-11" style="edgeStyle=orthogonalEdgeStyle;rounded=0;orthogonalLoop=1;jettySize=auto;html=1;entryX=1;entryY=0.5;entryDx=0;entryDy=0;endArrow=open;endFill=0;" edge="1" parent="1" source="kEgITRK2Zp_CGvGWQ56D-6" target="kEgITRK2Zp_CGvGWQ56D-9">
          <mxGeometry relative="1" as="geometry">
            <Array as="points">
              <mxPoint x="567" y="274" />
            </Array>
          </mxGeometry>
        </mxCell>
        <mxCell id="kEgITRK2Zp_CGvGWQ56D-6" value="&lt;span style=&quot;background-color: rgb(251, 251, 251);&quot;&gt;Show error message&amp;nbsp;&lt;br&gt;&lt;/span&gt;" style="rounded=1;whiteSpace=wrap;html=1;arcSize=40;fontColor=#000000;fillColor=#FFFFFF;strokeColor=#2E625B;" vertex="1" parent="1">
          <mxGeometry x="507" y="54" width="120" height="40" as="geometry" />
        </mxCell>
        <mxCell id="kEgITRK2Zp_CGvGWQ56D-9" value="" style="ellipse;html=1;shape=endState;fillColor=#1ba1e2;strokeColor=#006EAF;fontColor=#ffffff;" vertex="1" parent="1">
          <mxGeometry x="90" y="259" width="30" height="30" as="geometry" />
        </mxCell>
      </root>
    </mxGraphModel>
  </diagram>
  <diagram name="Edit/Delete Inventory" id="plyM4_9mfYCyHYJR95KW">
    <mxGraphModel dx="1391" dy="920" grid="0" gridSize="10" guides="1" tooltips="1" connect="1" arrows="1" fold="1" page="0" pageScale="1" pageWidth="850" pageHeight="1100" math="0" shadow="0">
      <root>
        <mxCell id="0" />
        <mxCell id="1" parent="0" />
        <mxCell id="q6iQJuRPNoZBOhDgRVAI-1" value="" style="shape=table;startSize=0;container=1;collapsible=0;childLayout=tableLayout;fillColor=#F6F8FA;strokeColor=#9AC7BF;" parent="1" vertex="1">
          <mxGeometry x="-47" y="-363" width="815.2461500901444" height="925.25" as="geometry" />
        </mxCell>
        <mxCell id="q6iQJuRPNoZBOhDgRVAI-2" value="" style="shape=tableRow;horizontal=0;startSize=0;swimlaneHead=0;swimlaneBody=0;strokeColor=inherit;top=0;left=0;bottom=0;right=0;collapsible=0;dropTarget=0;fillColor=none;points=[[0,0.5],[1,0.5]];portConstraint=eastwest;" parent="q6iQJuRPNoZBOhDgRVAI-1" vertex="1">
          <mxGeometry width="815.2461500901444" height="44" as="geometry" />
        </mxCell>
        <mxCell id="q6iQJuRPNoZBOhDgRVAI-3" value="User" style="shape=partialRectangle;html=1;whiteSpace=wrap;connectable=0;strokeColor=inherit;overflow=hidden;fillColor=none;top=0;left=0;bottom=0;right=0;pointerEvents=1;" parent="q6iQJuRPNoZBOhDgRVAI-2" vertex="1">
          <mxGeometry width="312" height="44" as="geometry">
            <mxRectangle width="312" height="44" as="alternateBounds" />
          </mxGeometry>
        </mxCell>
        <mxCell id="q6iQJuRPNoZBOhDgRVAI-4" value="System" style="shape=partialRectangle;html=1;whiteSpace=wrap;connectable=0;strokeColor=inherit;overflow=hidden;fillColor=none;top=0;left=0;bottom=0;right=0;pointerEvents=1;" parent="q6iQJuRPNoZBOhDgRVAI-2" vertex="1">
          <mxGeometry x="312" width="503" height="44" as="geometry">
            <mxRectangle width="503" height="44" as="alternateBounds" />
          </mxGeometry>
        </mxCell>
        <mxCell id="q6iQJuRPNoZBOhDgRVAI-5" value="" style="shape=tableRow;horizontal=0;startSize=0;swimlaneHead=0;swimlaneBody=0;strokeColor=inherit;top=0;left=0;bottom=0;right=0;collapsible=0;dropTarget=0;fillColor=none;points=[[0,0.5],[1,0.5]];portConstraint=eastwest;" parent="q6iQJuRPNoZBOhDgRVAI-1" vertex="1">
          <mxGeometry y="44" width="815.2461500901444" height="881" as="geometry" />
        </mxCell>
        <mxCell id="q6iQJuRPNoZBOhDgRVAI-6" value="" style="shape=partialRectangle;html=1;whiteSpace=wrap;connectable=0;strokeColor=inherit;overflow=hidden;fillColor=none;top=0;left=0;bottom=0;right=0;pointerEvents=1;" parent="q6iQJuRPNoZBOhDgRVAI-5" vertex="1">
          <mxGeometry width="312" height="881" as="geometry">
            <mxRectangle width="312" height="881" as="alternateBounds" />
          </mxGeometry>
        </mxCell>
        <mxCell id="q6iQJuRPNoZBOhDgRVAI-7" value="" style="shape=partialRectangle;html=1;whiteSpace=wrap;connectable=0;strokeColor=inherit;overflow=hidden;fillColor=none;top=0;left=0;bottom=0;right=0;pointerEvents=1;" parent="q6iQJuRPNoZBOhDgRVAI-5" vertex="1">
          <mxGeometry x="312" width="503" height="881" as="geometry">
            <mxRectangle width="503" height="881" as="alternateBounds" />
          </mxGeometry>
        </mxCell>
        <mxCell id="q6iQJuRPNoZBOhDgRVAI-8" value="" style="rounded=1;whiteSpace=wrap;html=1;fillColor=#ffffc0;strokeColor=#ff0000;fontColor=#000000;arcSize=40;" parent="q6iQJuRPNoZBOhDgRVAI-5" vertex="1">
          <mxGeometry x="815" width="NaN" height="881" as="geometry">
            <mxRectangle width="NaN" height="881" as="alternateBounds" />
          </mxGeometry>
        </mxCell>
        <mxCell id="q6iQJuRPNoZBOhDgRVAI-9" value="" style="ellipse;html=1;shape=startState;fillColor=#2E625B;strokeColor=#2E625B;" parent="1" vertex="1">
          <mxGeometry x="90" y="-313" width="30" height="30" as="geometry" />
        </mxCell>
        <mxCell id="q6iQJuRPNoZBOhDgRVAI-10" value="" style="edgeStyle=orthogonalEdgeStyle;html=1;verticalAlign=bottom;endArrow=open;endSize=8;strokeColor=#000000;rounded=0;fontSize=12;curved=1;entryX=0.5;entryY=0;entryDx=0;entryDy=0;" parent="1" source="q6iQJuRPNoZBOhDgRVAI-9" target="q6iQJuRPNoZBOhDgRVAI-11" edge="1">
          <mxGeometry relative="1" as="geometry">
            <mxPoint x="120" y="-221" as="targetPoint" />
          </mxGeometry>
        </mxCell>
        <mxCell id="NqXA9Po_gSX5Ma2TpDhe-2" style="edgeStyle=orthogonalEdgeStyle;rounded=0;orthogonalLoop=1;jettySize=auto;html=1;endArrow=open;endFill=0;" edge="1" parent="1" source="q6iQJuRPNoZBOhDgRVAI-11" target="NqXA9Po_gSX5Ma2TpDhe-1">
          <mxGeometry relative="1" as="geometry" />
        </mxCell>
        <mxCell id="q6iQJuRPNoZBOhDgRVAI-11" value="Access Inventory Page" style="rounded=1;whiteSpace=wrap;html=1;arcSize=40;fontColor=#000000;fillColor=#FFFFFF;strokeColor=#2E625B;" parent="1" vertex="1">
          <mxGeometry x="45" y="-257" width="120" height="40" as="geometry" />
        </mxCell>
        <mxCell id="q6iQJuRPNoZBOhDgRVAI-18" value="" style="html=1;verticalAlign=bottom;endArrow=open;endSize=8;strokeColor=#000000;rounded=0;fontSize=12;edgeStyle=orthogonalEdgeStyle;exitX=1;exitY=0.5;exitDx=0;exitDy=0;entryX=0;entryY=0.5;entryDx=0;entryDy=0;" parent="1" source="xa0k9B5-DWUTXVlidqq6-1" target="Mg55XcesrXVu8WL7RYJ4-5" edge="1">
          <mxGeometry relative="1" as="geometry">
            <mxPoint x="335" y="-7" as="targetPoint" />
            <mxPoint x="105" y="-59" as="sourcePoint" />
            <Array as="points">
              <mxPoint x="333" y="-72" />
            </Array>
          </mxGeometry>
        </mxCell>
        <mxCell id="q6iQJuRPNoZBOhDgRVAI-19" value="Delete item" style="edgeLabel;html=1;align=center;verticalAlign=middle;resizable=0;points=[];fontSize=12;" parent="q6iQJuRPNoZBOhDgRVAI-18" vertex="1" connectable="0">
          <mxGeometry x="-0.0864" relative="1" as="geometry">
            <mxPoint x="4" y="-13" as="offset" />
          </mxGeometry>
        </mxCell>
        <mxCell id="NqXA9Po_gSX5Ma2TpDhe-10" value="" style="edgeStyle=orthogonalEdgeStyle;rounded=0;orthogonalLoop=1;jettySize=auto;html=1;" edge="1" parent="1" source="q6iQJuRPNoZBOhDgRVAI-20" target="NqXA9Po_gSX5Ma2TpDhe-9">
          <mxGeometry relative="1" as="geometry" />
        </mxCell>
        <mxCell id="q6iQJuRPNoZBOhDgRVAI-20" value="Select Item to Edit" style="rounded=1;whiteSpace=wrap;html=1;arcSize=40;fontColor=#000000;fillColor=#FFFFFF;strokeColor=#2E625B;" parent="1" vertex="1">
          <mxGeometry x="45" y="41" width="120" height="40" as="geometry" />
        </mxCell>
        <mxCell id="q6iQJuRPNoZBOhDgRVAI-21" value="" style="ellipse;html=1;shape=endState;fillColor=#2E625B;strokeColor=#2E625B;" parent="1" vertex="1">
          <mxGeometry x="80" y="499" width="30" height="30" as="geometry" />
        </mxCell>
        <mxCell id="NqXA9Po_gSX5Ma2TpDhe-7" style="edgeStyle=orthogonalEdgeStyle;rounded=0;orthogonalLoop=1;jettySize=auto;html=1;exitX=0.5;exitY=1;exitDx=0;exitDy=0;entryX=0.5;entryY=0;entryDx=0;entryDy=0;endArrow=open;endFill=0;" edge="1" parent="1" source="xa0k9B5-DWUTXVlidqq6-1" target="q6iQJuRPNoZBOhDgRVAI-20">
          <mxGeometry relative="1" as="geometry" />
        </mxCell>
        <mxCell id="NqXA9Po_gSX5Ma2TpDhe-8" value="Edit" style="edgeLabel;html=1;align=center;verticalAlign=middle;resizable=0;points=[];" vertex="1" connectable="0" parent="NqXA9Po_gSX5Ma2TpDhe-7">
          <mxGeometry x="-0.5626" y="-3" relative="1" as="geometry">
            <mxPoint as="offset" />
          </mxGeometry>
        </mxCell>
        <mxCell id="xa0k9B5-DWUTXVlidqq6-1" value=" Edit/Delete" style="rhombus;whiteSpace=wrap;html=1;fillColor=#d5e8d4;strokeColor=#82b366;" parent="1" vertex="1">
          <mxGeometry x="41.5" y="-115" width="127" height="85" as="geometry" />
        </mxCell>
        <mxCell id="NqXA9Po_gSX5Ma2TpDhe-5" style="edgeStyle=orthogonalEdgeStyle;rounded=0;orthogonalLoop=1;jettySize=auto;html=1;entryX=0.5;entryY=0;entryDx=0;entryDy=0;endArrow=open;endFill=0;" edge="1" parent="1" source="NqXA9Po_gSX5Ma2TpDhe-1" target="xa0k9B5-DWUTXVlidqq6-1">
          <mxGeometry relative="1" as="geometry" />
        </mxCell>
        <mxCell id="NqXA9Po_gSX5Ma2TpDhe-1" value="Display Inventory Items" style="rounded=1;whiteSpace=wrap;html=1;arcSize=40;fontColor=#000000;fillColor=#FFFFFF;strokeColor=#2E625B;" vertex="1" parent="1">
          <mxGeometry x="45" y="-197" width="120" height="40" as="geometry" />
        </mxCell>
        <mxCell id="GFNg--mAI48gfb7FXylI-1" style="edgeStyle=orthogonalEdgeStyle;rounded=0;orthogonalLoop=1;jettySize=auto;html=1;exitX=1;exitY=0.5;exitDx=0;exitDy=0;entryX=0;entryY=0.5;entryDx=0;entryDy=0;endArrow=open;endFill=0;" edge="1" parent="1" source="NqXA9Po_gSX5Ma2TpDhe-9" target="NqXA9Po_gSX5Ma2TpDhe-12">
          <mxGeometry relative="1" as="geometry" />
        </mxCell>
        <mxCell id="NqXA9Po_gSX5Ma2TpDhe-9" value="&lt;span style=&quot;color: rgba(0, 0, 0, 0); font-family: monospace; font-size: 0px; text-align: start; text-wrap-mode: nowrap;&quot;&gt;%3CmxGraphModel%3E%3Croot%3E%3CmxCell%20id%3D%220%22%2F%3E%3CmxCell%20id%3D%221%22%20parent%3D%220%22%2F%3E%3CmxCell%20id%3D%222%22%20value%3D%22Select%20Item%20to%20Edit%22%20style%3D%22rounded%3D1%3BwhiteSpace%3Dwrap%3Bhtml%3D1%3BarcSize%3D40%3BfontColor%3D%23000000%3BfillColor%3D%23FFFFFF%3BstrokeColor%3D%232E625B%3B%22%20vertex%3D%221%22%20parent%3D%221%22%3E%3CmxGeometry%20x%3D%2245%22%20y%3D%2241%22%20width%3D%22120%22%20height%3D%2240%22%20as%3D%22geometry%22%2F%3E%3C%2FmxCell%3E%3C%2Froot%3E%3C%2FmxGraphModel%3E&lt;/span&gt;Enter Updates" style="rounded=1;whiteSpace=wrap;html=1;arcSize=40;fontColor=#000000;fillColor=#FFFFFF;strokeColor=#2E625B;" vertex="1" parent="1">
          <mxGeometry x="45" y="111" width="120" height="40" as="geometry" />
        </mxCell>
        <mxCell id="NqXA9Po_gSX5Ma2TpDhe-12" value="Validate Input&lt;br&gt;&amp;nbsp;Data" style="rhombus;whiteSpace=wrap;html=1;fillColor=#d5e8d4;strokeColor=#82b366;" vertex="1" parent="1">
          <mxGeometry x="340" y="100.5" width="98" height="61" as="geometry" />
        </mxCell>
        <mxCell id="NqXA9Po_gSX5Ma2TpDhe-13" value="no" style="edgeStyle=orthogonalEdgeStyle;html=1;align=left;verticalAlign=bottom;endArrow=open;endSize=8;rounded=0;entryX=0.5;entryY=0;entryDx=0;entryDy=0;exitX=1;exitY=0.5;exitDx=0;exitDy=0;" edge="1" source="NqXA9Po_gSX5Ma2TpDhe-12" parent="1" target="JE5wsg1_9zKoPvNmgA3c-1">
          <mxGeometry x="-1" relative="1" as="geometry">
            <mxPoint x="489" y="133" as="targetPoint" />
          </mxGeometry>
        </mxCell>
        <mxCell id="NqXA9Po_gSX5Ma2TpDhe-14" value="yes" style="edgeStyle=orthogonalEdgeStyle;html=1;align=left;verticalAlign=top;endArrow=open;endSize=8;rounded=0;" edge="1" source="NqXA9Po_gSX5Ma2TpDhe-12" parent="1">
          <mxGeometry x="-1" relative="1" as="geometry">
            <mxPoint x="389" y="209" as="targetPoint" />
          </mxGeometry>
        </mxCell>
        <mxCell id="JE5wsg1_9zKoPvNmgA3c-1" value="&lt;span style=&quot;background-color: rgb(251, 251, 251);&quot;&gt;Show message&amp;nbsp;&lt;br&gt;&quot; Not validated&quot;&lt;/span&gt;" style="rounded=1;whiteSpace=wrap;html=1;arcSize=40;fontColor=#000000;fillColor=#FFFFFF;strokeColor=#2E625B;" vertex="1" parent="1">
          <mxGeometry x="422.59000000000003" y="158" width="120" height="40" as="geometry" />
        </mxCell>
        <mxCell id="NAZXWNx--yHfDmiMheVD-1" style="edgeStyle=orthogonalEdgeStyle;rounded=0;orthogonalLoop=1;jettySize=auto;html=1;entryX=0.5;entryY=0;entryDx=0;entryDy=0;endArrow=open;endFill=0;" edge="1" parent="1" source="JFkAv1YejXK8SYciMGej-1" target="JFkAv1YejXK8SYciMGej-2">
          <mxGeometry relative="1" as="geometry" />
        </mxCell>
        <mxCell id="JFkAv1YejXK8SYciMGej-1" value="Save Changes" style="rounded=1;whiteSpace=wrap;html=1;arcSize=40;fontColor=#000000;fillColor=#FFFFFF;strokeColor=#2E625B;" vertex="1" parent="1">
          <mxGeometry x="333" y="208" width="120" height="40" as="geometry" />
        </mxCell>
        <mxCell id="JFkAv1YejXK8SYciMGej-2" value="No problem in saving" style="rhombus;whiteSpace=wrap;html=1;fillColor=#d5e8d4;strokeColor=#82b366;" vertex="1" parent="1">
          <mxGeometry x="347" y="283" width="91" height="47" as="geometry" />
        </mxCell>
        <mxCell id="JFkAv1YejXK8SYciMGej-3" value="no" style="edgeStyle=orthogonalEdgeStyle;html=1;align=left;verticalAlign=bottom;endArrow=open;endSize=8;rounded=0;" edge="1" source="JFkAv1YejXK8SYciMGej-2" parent="1">
          <mxGeometry x="-1" relative="1" as="geometry">
            <mxPoint x="536" y="334" as="targetPoint" />
          </mxGeometry>
        </mxCell>
        <mxCell id="JFkAv1YejXK8SYciMGej-4" value="yes" style="edgeStyle=orthogonalEdgeStyle;html=1;align=left;verticalAlign=top;endArrow=open;endSize=8;rounded=0;" edge="1" source="JFkAv1YejXK8SYciMGej-2" parent="1">
          <mxGeometry x="-1" relative="1" as="geometry">
            <mxPoint x="393" y="364" as="targetPoint" />
          </mxGeometry>
        </mxCell>
        <mxCell id="Mg55XcesrXVu8WL7RYJ4-29" style="edgeStyle=orthogonalEdgeStyle;rounded=0;orthogonalLoop=1;jettySize=auto;html=1;entryX=1;entryY=0.5;entryDx=0;entryDy=0;endArrow=open;endFill=0;" edge="1" parent="1" source="cXVu9HLQk20sxvCUkzqy-1" target="q6iQJuRPNoZBOhDgRVAI-21">
          <mxGeometry relative="1" as="geometry">
            <Array as="points">
              <mxPoint x="542" y="514" />
            </Array>
          </mxGeometry>
        </mxCell>
        <mxCell id="cXVu9HLQk20sxvCUkzqy-1" value="&lt;span style=&quot;background-color: rgb(251, 251, 251);&quot;&gt;Show error message&amp;nbsp;&lt;/span&gt;" style="rounded=1;whiteSpace=wrap;html=1;arcSize=40;fontColor=#000000;fillColor=#FFFFFF;strokeColor=#2E625B;" vertex="1" parent="1">
          <mxGeometry x="482" y="333" width="120" height="40" as="geometry" />
        </mxCell>
        <mxCell id="cXVu9HLQk20sxvCUkzqy-5" value="" style="edgeStyle=orthogonalEdgeStyle;rounded=0;orthogonalLoop=1;jettySize=auto;html=1;endArrow=open;endFill=0;" edge="1" parent="1" source="cXVu9HLQk20sxvCUkzqy-2" target="cXVu9HLQk20sxvCUkzqy-3">
          <mxGeometry relative="1" as="geometry" />
        </mxCell>
        <mxCell id="cXVu9HLQk20sxvCUkzqy-2" value="&lt;span style=&quot;background-color: rgb(251, 251, 251);&quot;&gt;Update UI&lt;/span&gt;" style="rounded=1;whiteSpace=wrap;html=1;arcSize=40;fontColor=#000000;fillColor=#FFFFFF;strokeColor=#2E625B;" vertex="1" parent="1">
          <mxGeometry x="340" y="365" width="120" height="40" as="geometry" />
        </mxCell>
        <mxCell id="Mg55XcesrXVu8WL7RYJ4-2" style="edgeStyle=orthogonalEdgeStyle;rounded=0;orthogonalLoop=1;jettySize=auto;html=1;exitX=0;exitY=0.5;exitDx=0;exitDy=0;endArrow=open;endFill=0;" edge="1" parent="1" source="cXVu9HLQk20sxvCUkzqy-3" target="Mg55XcesrXVu8WL7RYJ4-1">
          <mxGeometry relative="1" as="geometry" />
        </mxCell>
        <mxCell id="Mg55XcesrXVu8WL7RYJ4-3" value="Items&amp;nbsp;&lt;br&gt;&amp;amp;&amp;amp; success message" style="edgeLabel;html=1;align=center;verticalAlign=middle;resizable=0;points=[];" vertex="1" connectable="0" parent="Mg55XcesrXVu8WL7RYJ4-2">
          <mxGeometry x="-0.0034" relative="1" as="geometry">
            <mxPoint as="offset" />
          </mxGeometry>
        </mxCell>
        <mxCell id="cXVu9HLQk20sxvCUkzqy-3" value="&lt;span style=&quot;background-color: rgb(251, 251, 251);&quot;&gt;Show Success Message&lt;/span&gt;" style="rounded=1;whiteSpace=wrap;html=1;arcSize=40;fontColor=#000000;fillColor=#FFFFFF;strokeColor=#2E625B;" vertex="1" parent="1">
          <mxGeometry x="340" y="429" width="120" height="40" as="geometry" />
        </mxCell>
        <mxCell id="Mg55XcesrXVu8WL7RYJ4-28" value="" style="edgeStyle=orthogonalEdgeStyle;rounded=0;orthogonalLoop=1;jettySize=auto;html=1;endArrow=open;endFill=0;" edge="1" parent="1" source="Mg55XcesrXVu8WL7RYJ4-1" target="q6iQJuRPNoZBOhDgRVAI-21">
          <mxGeometry relative="1" as="geometry" />
        </mxCell>
        <mxCell id="Mg55XcesrXVu8WL7RYJ4-1" value="Display Items" style="rounded=1;whiteSpace=wrap;html=1;arcSize=40;fontColor=#000000;fillColor=#FFFFFF;strokeColor=#2E625B;" vertex="1" parent="1">
          <mxGeometry x="35" y="429" width="120" height="40" as="geometry" />
        </mxCell>
        <mxCell id="Mg55XcesrXVu8WL7RYJ4-8" value="" style="edgeStyle=orthogonalEdgeStyle;rounded=0;orthogonalLoop=1;jettySize=auto;html=1;endArrow=open;endFill=0;" edge="1" parent="1" source="Mg55XcesrXVu8WL7RYJ4-5" target="Mg55XcesrXVu8WL7RYJ4-6">
          <mxGeometry relative="1" as="geometry" />
        </mxCell>
        <mxCell id="Mg55XcesrXVu8WL7RYJ4-5" value="Select Item to Delete" style="rounded=1;whiteSpace=wrap;html=1;arcSize=40;fontColor=#000000;fillColor=#FFFFFF;strokeColor=#2E625B;" vertex="1" parent="1">
          <mxGeometry x="356" y="-92.5" width="120" height="38.5" as="geometry" />
        </mxCell>
        <mxCell id="Mg55XcesrXVu8WL7RYJ4-10" value="" style="edgeStyle=orthogonalEdgeStyle;rounded=0;orthogonalLoop=1;jettySize=auto;html=1;endArrow=open;endFill=0;" edge="1" parent="1" source="Mg55XcesrXVu8WL7RYJ4-6" target="Mg55XcesrXVu8WL7RYJ4-9">
          <mxGeometry relative="1" as="geometry" />
        </mxCell>
        <mxCell id="Mg55XcesrXVu8WL7RYJ4-6" value="Confirm Deletion" style="rounded=1;whiteSpace=wrap;html=1;arcSize=40;fontColor=#000000;fillColor=#FFFFFF;strokeColor=#2E625B;" vertex="1" parent="1">
          <mxGeometry x="356" y="-28" width="120" height="40" as="geometry" />
        </mxCell>
        <mxCell id="Mg55XcesrXVu8WL7RYJ4-19" style="edgeStyle=orthogonalEdgeStyle;rounded=0;orthogonalLoop=1;jettySize=auto;html=1;exitX=1;exitY=0.5;exitDx=0;exitDy=0;entryX=0;entryY=0.5;entryDx=0;entryDy=0;endArrow=open;endFill=0;" edge="1" parent="1" source="Mg55XcesrXVu8WL7RYJ4-9" target="Mg55XcesrXVu8WL7RYJ4-16">
          <mxGeometry relative="1" as="geometry" />
        </mxCell>
        <mxCell id="Mg55XcesrXVu8WL7RYJ4-9" value="Perform Deletion" style="rounded=1;whiteSpace=wrap;html=1;arcSize=40;fontColor=#000000;fillColor=#FFFFFF;strokeColor=#2E625B;" vertex="1" parent="1">
          <mxGeometry x="356" y="36" width="120" height="40" as="geometry" />
        </mxCell>
        <mxCell id="Mg55XcesrXVu8WL7RYJ4-16" value="No problem in deleting" style="rhombus;whiteSpace=wrap;html=1;fillColor=#d5e8d4;strokeColor=#82b366;" vertex="1" parent="1">
          <mxGeometry x="526" y="16" width="79" height="81" as="geometry" />
        </mxCell>
        <mxCell id="Mg55XcesrXVu8WL7RYJ4-17" value="no" style="edgeStyle=orthogonalEdgeStyle;html=1;align=left;verticalAlign=bottom;endArrow=open;endSize=8;rounded=0;entryX=0.5;entryY=0;entryDx=0;entryDy=0;" edge="1" source="Mg55XcesrXVu8WL7RYJ4-16" parent="1" target="Mg55XcesrXVu8WL7RYJ4-23">
          <mxGeometry x="-1" relative="1" as="geometry">
            <mxPoint x="705" y="56" as="targetPoint" />
          </mxGeometry>
        </mxCell>
        <mxCell id="Mg55XcesrXVu8WL7RYJ4-18" value="yes" style="edgeStyle=orthogonalEdgeStyle;html=1;align=left;verticalAlign=top;endArrow=open;endSize=8;rounded=0;" edge="1" source="Mg55XcesrXVu8WL7RYJ4-16" parent="1" target="Mg55XcesrXVu8WL7RYJ4-20">
          <mxGeometry x="-1" relative="1" as="geometry">
            <mxPoint x="565" y="136" as="targetPoint" />
          </mxGeometry>
        </mxCell>
        <mxCell id="Mg55XcesrXVu8WL7RYJ4-22" style="edgeStyle=orthogonalEdgeStyle;rounded=0;orthogonalLoop=1;jettySize=auto;html=1;exitX=0.5;exitY=1;exitDx=0;exitDy=0;entryX=0.5;entryY=0;entryDx=0;entryDy=0;endArrow=open;endFill=0;" edge="1" parent="1" source="Mg55XcesrXVu8WL7RYJ4-20" target="Mg55XcesrXVu8WL7RYJ4-21">
          <mxGeometry relative="1" as="geometry" />
        </mxCell>
        <mxCell id="Mg55XcesrXVu8WL7RYJ4-20" value="Update UI" style="rounded=1;whiteSpace=wrap;html=1;arcSize=40;fontColor=#000000;fillColor=#FFFFFF;strokeColor=#2E625B;" vertex="1" parent="1">
          <mxGeometry x="558" y="140" width="120" height="40" as="geometry" />
        </mxCell>
        <mxCell id="Mg55XcesrXVu8WL7RYJ4-31" style="edgeStyle=orthogonalEdgeStyle;rounded=0;orthogonalLoop=1;jettySize=auto;html=1;entryX=1;entryY=0.5;entryDx=0;entryDy=0;endArrow=open;endFill=0;" edge="1" parent="1" source="Mg55XcesrXVu8WL7RYJ4-21" target="q6iQJuRPNoZBOhDgRVAI-21">
          <mxGeometry relative="1" as="geometry">
            <Array as="points">
              <mxPoint x="612" y="514" />
            </Array>
          </mxGeometry>
        </mxCell>
        <mxCell id="Mg55XcesrXVu8WL7RYJ4-21" value="Show Success Message" style="rounded=1;whiteSpace=wrap;html=1;arcSize=40;fontColor=#000000;fillColor=#FFFFFF;strokeColor=#2E625B;" vertex="1" parent="1">
          <mxGeometry x="558" y="203" width="120" height="40" as="geometry" />
        </mxCell>
        <mxCell id="Mg55XcesrXVu8WL7RYJ4-32" style="edgeStyle=orthogonalEdgeStyle;rounded=0;orthogonalLoop=1;jettySize=auto;html=1;entryX=1;entryY=0.5;entryDx=0;entryDy=0;endArrow=open;endFill=0;" edge="1" parent="1" source="Mg55XcesrXVu8WL7RYJ4-23" target="q6iQJuRPNoZBOhDgRVAI-21">
          <mxGeometry relative="1" as="geometry">
            <Array as="points">
              <mxPoint x="692" y="514" />
            </Array>
          </mxGeometry>
        </mxCell>
        <mxCell id="Mg55XcesrXVu8WL7RYJ4-23" value="&lt;span style=&quot;background-color: rgb(251, 251, 251);&quot;&gt;Show error message&amp;nbsp;&lt;/span&gt;" style="rounded=1;whiteSpace=wrap;html=1;arcSize=40;fontColor=#000000;fillColor=#FFFFFF;strokeColor=#2E625B;" vertex="1" parent="1">
          <mxGeometry x="636" y="84" width="120" height="40" as="geometry" />
        </mxCell>
      </root>
    </mxGraphModel>
  </diagram>
</mxfile>
